<?xml version="1.0" encoding="UTF-8" standalone="no"?>
<!DOCTYPE svg PUBLIC "-//W3C//DTD SVG 1.1//EN"
 "http://www.w3.org/Graphics/SVG/1.1/DTD/svg11.dtd">
<!-- Generated by graphviz version 2.43.0 (0)
 -->
<!-- Title: ChessModels_Banner Pages: 1 -->
<svg width="1280pt" height="616pt"
 viewBox="0.00 0.00 1280.00 616.40" xmlns="http://www.w3.org/2000/svg" xmlns:xlink="http://www.w3.org/1999/xlink">
<g id="graph0" class="graph" transform="scale(1.25 1.25) rotate(0) translate(4 489.51)">
<title>ChessModels_Banner</title>
<polygon fill="#fbfbfb" stroke="transparent" points="-4,4 -4,-489.51 1020.8,-489.51 1020.8,4 -4,4"/>
<!-- bodyA&#45;&#45;bodyB -->
<g id="edge1" class="edge">
<title>bodyA&#45;&#45;bodyB</title>
<path fill="none" stroke="#d7dade" stroke-width="1.9" d="M734.16,-219.21C782.36,-191.93 799.94,-180.72 816.32,-164.13"/>
</g>
<!-- bodyA&#45;&#45;a1 -->
<g id="edge2" class="edge">
<title>bodyA&#45;&#45;a1</title>
<path fill="none" stroke="#d7dade" stroke-width="1.9" d="M682.79,-199.86C675.26,-186.81 663.82,-178.5 637.14,-161.26"/>
</g>
<!-- bodyA&#45;&#45;a3 -->
<g id="edge4" class="edge">
<title>bodyA&#45;&#45;a3</title>
<path fill="none" stroke="#d7dade" stroke-width="1.9" d="M679.4,-278.86C670.59,-291.24 657.68,-299.34 627.81,-316.44"/>
</g>
<!-- bodyA&#45;&#45;a5 -->
<g id="edge6" class="edge">
<title>bodyA&#45;&#45;a5</title>
<path fill="none" stroke="#d7dade" stroke-width="1.9" d="M708.43,-281.06C720.64,-328.09 718.4,-341.3 699.2,-381.88"/>
</g>
<!-- bodyA&#45;&#45;a6 -->
<g id="edge7" class="edge">
<title>bodyA&#45;&#45;a6</title>
<path fill="none" stroke="#d7dade" stroke-width="1.45" d="M732.04,-264.65C744.89,-274.58 749.27,-280.68 755.57,-293.22"/>
</g>
<!-- bodyB&#45;&#45;b1 -->
<g id="edge8" class="edge">
<title>bodyB&#45;&#45;b1</title>
<path fill="none" stroke="#d7dade" stroke-width="1.9" d="M817.62,-103.3C807.79,-95.27 795.09,-90.73 768.21,-82.53"/>
</g>
<!-- bodyB&#45;&#45;b3 -->
<g id="edge10" class="edge">
<title>bodyB&#45;&#45;b3</title>
<path fill="none" stroke="#d7dade" stroke-width="1.9" d="M875.21,-111.66C887.22,-103.09 892.44,-98.38 898.66,-91.1"/>
</g>
<!-- bodyB&#45;&#45;b5 -->
<g id="edge12" class="edge">
<title>bodyB&#45;&#45;b5</title>
<path fill="none" stroke="#d7dade" stroke-width="1.9" d="M842.12,-173.68C839.93,-179.41 836.33,-185.91 830.83,-195.02"/>
</g>
<!-- bodyC&#45;&#45;c1 -->
<g id="edge14" class="edge">
<title>bodyC&#45;&#45;c1</title>
<path fill="none" stroke="#d7dade" stroke-width="1.9" d="M884.71,-307.89C878.58,-301.67 870.1,-294.49 857.44,-284.2"/>
</g>
<!-- bodyC&#45;&#45;c2 -->
<g id="edge15" class="edge">
<title>bodyC&#45;&#45;c2</title>
<path fill="none" stroke="#d7dade" stroke-width="1.9" d="M887.7,-390.83C879.41,-401.91 867.67,-409.22 843.09,-422.39"/>
</g>
<!-- bodyC&#45;&#45;c3 -->
<g id="edge16" class="edge">
<title>bodyC&#45;&#45;c3</title>
<path fill="none" stroke="#d7dade" stroke-width="1.9" d="M931.06,-388.06C937.46,-400.57 938.78,-408.63 938.35,-422.05"/>
</g>
<!-- bodyC&#45;&#45;c5 -->
<g id="edge18" class="edge">
<title>bodyC&#45;&#45;c5</title>
<path fill="none" stroke="#d7dade" stroke-width="1.9" d="M946.62,-324.89C958.11,-316.44 962.57,-309.37 968.88,-295"/>
</g>
<!-- bodyC&#45;&#45;c6 -->
<g id="edge19" class="edge">
<title>bodyC&#45;&#45;c6</title>
<path fill="none" stroke="#d7dade" stroke-width="1.45" d="M862.62,-361.18C844.34,-363.72 821.12,-363.07 768.66,-361.25"/>
</g>
<!-- a1&#45;&#45;a2 -->
<g id="edge3" class="edge">
<title>a1&#45;&#45;a2</title>
<path fill="none" stroke="#d7dade" stroke-width="1.5" d="M622.38,-140.61C614.48,-109.52 611.37,-105.49 588.78,-89.94"/>
</g>
<!-- a3&#45;&#45;a4 -->
<g id="edge5" class="edge">
<title>a3&#45;&#45;a4</title>
<path fill="none" stroke="#d7dade" stroke-width="1.5" d="M613.67,-334.13C603.03,-370.53 599.94,-374.79 574.14,-391.15"/>
</g>
<!-- a5&#45;&#45;c2 -->
<g id="edge22" class="edge">
<title>a5&#45;&#45;c2</title>
<path fill="none" stroke="#dadddf" stroke-width="1.5" d="M709.81,-406.64C769.95,-427.2 782.25,-430.64 808.77,-430.96"/>
</g>
<!-- a5&#45;&#45;c6 -->
<g id="edge24" class="edge">
<title>a5&#45;&#45;c6</title>
<path fill="none" stroke="#dadddf" stroke-width="1.35" d="M710.21,-395.42C736.06,-389.08 741.16,-385.4 754.6,-368.01"/>
</g>
<!-- a6&#45;&#45;c1 -->
<g id="edge21" class="edge">
<title>a6&#45;&#45;c1</title>
<path fill="none" stroke="#dadddf" stroke-width="1.5" d="M770.04,-300.31C804.05,-292.82 814.82,-290.09 825.93,-283.25"/>
</g>
<!-- b1&#45;&#45;b2 -->
<g id="edge9" class="edge">
<title>b1&#45;&#45;b2</title>
<path fill="none" stroke="#d7dade" stroke-width="1.45" d="M742.1,-68.68C729.9,-59.62 722.77,-58.83 693.11,-58.03"/>
</g>
<!-- b3&#45;&#45;b4 -->
<g id="edge11" class="edge">
<title>b3&#45;&#45;b4</title>
<path fill="none" stroke="#d7dade" stroke-width="1.45" d="M919.55,-77.72C944.03,-71.42 949.36,-70.26 960.14,-69.13"/>
</g>
<!-- b5&#45;&#45;b6 -->
<g id="edge13" class="edge">
<title>b5&#45;&#45;b6</title>
<path fill="none" stroke="#d7dade" stroke-width="1.4" d="M838.9,-208.75C884.92,-207.46 891.85,-207.43 911.7,-208.51"/>
</g>
<!-- b5&#45;&#45;c1 -->
<g id="edge20" class="edge">
<title>b5&#45;&#45;c1</title>
<path fill="none" stroke="#dadddf" stroke-width="1.5" d="M831.85,-222.58C840.83,-235.28 843.5,-241.37 843.46,-252.15"/>
</g>
<!-- c1&#45;&#45;c5 -->
<g id="edge23" class="edge">
<title>c1&#45;&#45;c5</title>
<path fill="none" stroke="#dadddf" stroke-width="1.5" d="M861.49,-273.48C925.56,-279.27 935.47,-280.18 961.7,-282.65"/>
</g>
<!-- c3&#45;&#45;c4 -->
<g id="edge17" class="edge">
<title>c3&#45;&#45;c4</title>
<path fill="none" stroke="#d7dade" stroke-width="1.45" d="M951.42,-430.11C970.82,-418.32 974.09,-413.86 980.4,-395.11"/>
</g>
<!-- anchorL&#45;&#45;textblock -->
<!-- bodyA -->
<g id="node1" class="node">
<title>bodyA</title>
<ellipse fill="#fbfbfb" stroke="#d9dde2" stroke-width="1.4" cx="697.05" cy="-240.08" rx="42.5" ry="42.5"/>
</g>
<!-- bodyB -->
<g id="node2" class="node">
<title>bodyB</title>
<ellipse fill="#fafafa" stroke="#d9dde2" stroke-width="1.4" cx="842.31" cy="-134.14" rx="39.5" ry="39.5"/>
</g>
<!-- bodyC -->
<g id="node3" class="node">
<title>bodyC</title>
<ellipse fill="#fafafa" stroke="#d9dde2" stroke-width="1.4" cx="907.05" cy="-348.78" rx="46" ry="46"/>
</g>
<!-- a1 -->
<g id="node4" class="node">
<title>a1</title>
<ellipse fill="#edf1f4" stroke="#d9dde2" stroke-width="1.4" cx="625.68" cy="-153.88" rx="13.5" ry="13.5"/>
</g>
<!-- a2 -->
<g id="node5" class="node">
<title>a2</title>
<ellipse fill="#eef2f5" stroke="#d9dde2" stroke-width="1.4" cx="582.95" cy="-85.95" rx="7" ry="7"/>
</g>
<!-- a3 -->
<g id="node6" class="node">
<title>a3</title>
<ellipse fill="#edf1f4" stroke="#d9dde2" stroke-width="1.4" cx="617" cy="-322.6" rx="12" ry="12"/>
</g>
<!-- a4 -->
<g id="node7" class="node">
<title>a4</title>
<ellipse fill="#eef2f5" stroke="#d9dde2" stroke-width="1.4" cx="567.07" cy="-395.6" rx="8" ry="8"/>
</g>
<!-- a5 -->
<g id="node8" class="node">
<title>a5</title>
<ellipse fill="#f5f7f9" stroke="#d9dde2" stroke-width="1.4" cx="690.47" cy="-400.01" rx="20" ry="20"/>
</g>
<!-- a6 -->
<g id="node9" class="node">
<title>a6</title>
<ellipse fill="#edf1f4" stroke="#d9dde2" stroke-width="1.4" cx="760.09" cy="-302.5" rx="10" ry="10"/>
</g>
<!-- b1 -->
<g id="node10" class="node">
<title>b1</title>
<ellipse fill="#eef1f4" stroke="#d9dde2" stroke-width="1.4" cx="753.84" cy="-78.17" rx="15" ry="15"/>
</g>
<!-- b2 -->
<g id="node11" class="node">
<title>b2</title>
<ellipse fill="#eef2f5" stroke="#d9dde2" stroke-width="1.4" cx="685.99" cy="-57.84" rx="7" ry="7"/>
</g>
<!-- b3 -->
<g id="node12" class="node">
<title>b3</title>
<ellipse fill="#eef1f4" stroke="#d9dde2" stroke-width="1.4" cx="906.89" cy="-80.99" rx="13" ry="13"/>
</g>
<!-- b4 -->
<g id="node13" class="node">
<title>b4</title>
<ellipse fill="#eef2f5" stroke="#d9dde2" stroke-width="1.4" cx="967.31" cy="-68.43" rx="7" ry="7"/>
</g>
<!-- b5 -->
<g id="node14" class="node">
<title>b5</title>
<ellipse fill="#f0f3f5" stroke="#d9dde2" stroke-width="1.4" cx="822.09" cy="-209.23" rx="16.5" ry="16.5"/>
</g>
<!-- b6 -->
<g id="node15" class="node">
<title>b6</title>
<ellipse fill="#eef2f5" stroke="#d9dde2" stroke-width="1.4" cx="919.69" cy="-208.96" rx="8" ry="8"/>
</g>
<!-- c1 -->
<g id="node16" class="node">
<title>c1</title>
<ellipse fill="#f3f6f8" stroke="#d9dde2" stroke-width="1.4" cx="841.97" cy="-271.71" rx="19.5" ry="19.5"/>
</g>
<!-- c2 -->
<g id="node17" class="node">
<title>c2</title>
<ellipse fill="#f5f7f9" stroke="#d9dde2" stroke-width="1.4" cx="827.07" cy="-430.9" rx="18" ry="18"/>
</g>
<!-- c3 -->
<g id="node18" class="node">
<title>c3</title>
<ellipse fill="#f4f6f8" stroke="#d9dde2" stroke-width="1.4" cx="937.4" cy="-438.4" rx="16" ry="16"/>
</g>
<!-- c4 -->
<g id="node19" class="node">
<title>c4</title>
<ellipse fill="#eef2f5" stroke="#d9dde2" stroke-width="1.4" cx="983.12" cy="-386.84" rx="8.5" ry="8.5"/>
</g>
<!-- c5 -->
<g id="node20" class="node">
<title>c5</title>
<ellipse fill="#eef1f4" stroke="#d9dde2" stroke-width="1.4" cx="973.66" cy="-283.77" rx="12" ry="12"/>
</g>
<!-- c6 -->
<g id="node21" class="node">
<title>c6</title>
<ellipse fill="#eef2f5" stroke="#d9dde2" stroke-width="1.4" cx="759.98" cy="-360.95" rx="8.5" ry="8.5"/>
</g>
<!-- textblock -->
<g id="node22" class="node">
<title>textblock</title>
<text text-anchor="start" x="38.47" y="-254.71" font-family="Helvetica,sans-Serif" font-weight="bold" font-size="72.00" fill="#222222">ChessModels</text>
<text text-anchor="start" x="38.47" y="-206.31" font-family="Helvetica,sans-Serif" font-size="30.00" fill="#444444">Chess Neural Network Weights and Docs</text>
<text text-anchor="start" x="38.47" y="-177.71" font-family="Helvetica,sans-Serif" font-size="22.00" fill="#666666">Versioned Binaries &#45; Hashes &#45; Minimal Metadata</text>
</g>
<!-- anchorL -->
<!-- anchorR -->
<!-- cornerTL -->
<!-- cornerTR -->
<!-- cornerBL -->
<!-- cornerBR -->
</g>
</svg>
