<?xml version="1.0" encoding="UTF-8" standalone="no"?>
<!DOCTYPE svg PUBLIC "-//W3C//DTD SVG 1.1//EN"
 "http://www.w3.org/Graphics/SVG/1.1/DTD/svg11.dtd">
<!-- Generated by graphviz version 2.43.0 (0)
 -->
<!-- Title: lc0_744706_architecture Pages: 1 -->
<svg width="828pt" height="814pt"
 viewBox="0.00 0.00 828.30 813.80" xmlns="http://www.w3.org/2000/svg" xmlns:xlink="http://www.w3.org/1999/xlink">
<g id="graph0" class="graph" transform="scale(1 1) rotate(0) translate(14.4 799.4)">
<title>lc0_744706_architecture</title>
<g id="clust5" class="cluster">
<title>cluster_value</title>
<path fill="transparent" stroke="#c5cae9" stroke-width="1.4" d="M440.5,-78C440.5,-78 501.5,-78 501.5,-78 507.5,-78 513.5,-84 513.5,-90 513.5,-90 513.5,-141 513.5,-141 513.5,-147 507.5,-153 501.5,-153 501.5,-153 440.5,-153 440.5,-153 434.5,-153 428.5,-147 428.5,-141 428.5,-141 428.5,-90 428.5,-90 428.5,-84 434.5,-78 440.5,-78"/>
<text text-anchor="middle" x="471" y="-137.8" font-family="Helvetica,sans-Serif" font-size="14.00" fill="#1a237e">Value head</text>
</g>
<g id="clust6" class="cluster">
<title>cluster_artifact</title>
<path fill="transparent" stroke="#d1c4e9" stroke-width="1.4" d="M502.5,-691C502.5,-691 636.5,-691 636.5,-691 642.5,-691 648.5,-697 648.5,-703 648.5,-703 648.5,-765 648.5,-765 648.5,-771 642.5,-777 636.5,-777 636.5,-777 502.5,-777 502.5,-777 496.5,-777 490.5,-771 490.5,-765 490.5,-765 490.5,-703 490.5,-703 490.5,-697 496.5,-691 502.5,-691"/>
<text text-anchor="middle" x="569.5" y="-761.8" font-family="Helvetica,sans-Serif" font-size="14.00" fill="#4527a0">Artifact</text>
</g>
<!-- position -->
<g id="node1" class="node">
<title>position</title>
<polygon fill="#e3f2fd" stroke="#1565c0" stroke-width="1.2" points="125,-740.5 0,-740.5 0,-704.5 131,-704.5 131,-734.5 125,-740.5"/>
<polyline fill="none" stroke="#1565c0" stroke-width="1.2" points="125,-740.5 125,-734.5 "/>
<polyline fill="none" stroke="#1565c0" stroke-width="1.2" points="131,-734.5 125,-734.5 "/>
<text text-anchor="middle" x="65.5" y="-725.9" font-family="Helvetica,sans-Serif" font-size="12.00">FEN / position</text>
<text text-anchor="middle" x="65.5" y="-712.9" font-family="Helvetica,sans-Serif" font-size="12.00">side to move oriented</text>
</g>
<!-- planes -->
<g id="node2" class="node">
<title>planes</title>
<path fill="#e3f2fd" stroke="#1565c0" stroke-width="1.2" d="M275,-740.5C275,-740.5 168,-740.5 168,-740.5 162,-740.5 156,-734.5 156,-728.5 156,-728.5 156,-716.5 156,-716.5 156,-710.5 162,-704.5 168,-704.5 168,-704.5 275,-704.5 275,-704.5 281,-704.5 287,-710.5 287,-716.5 287,-716.5 287,-728.5 287,-728.5 287,-734.5 281,-740.5 275,-740.5"/>
<text text-anchor="middle" x="221.5" y="-725.9" font-family="Helvetica,sans-Serif" font-size="12.00">Classical LC0 planes</text>
<text text-anchor="middle" x="221.5" y="-712.9" font-family="Helvetica,sans-Serif" font-size="12.00">112 x 8 x 8</text>
</g>
<!-- position&#45;&gt;planes -->
<g id="edge1" class="edge">
<title>position&#45;&gt;planes</title>
<path fill="none" stroke="#424242" stroke-width="1.2" d="M131.21,-722C131.21,-722 147.87,-722 147.87,-722"/>
<polygon fill="#424242" stroke="#424242" stroke-width="1.2" points="147.87,-724.8 155.87,-722 147.87,-719.2 147.87,-724.8"/>
</g>
<!-- input_conv -->
<g id="node3" class="node">
<title>input_conv</title>
<path fill="#e0f2f1" stroke="#00796b" stroke-width="1.2" d="M245.5,-649C245.5,-649 197.5,-649 197.5,-649 191.5,-649 185.5,-643 185.5,-637 185.5,-637 185.5,-625 185.5,-625 185.5,-619 191.5,-613 197.5,-613 197.5,-613 245.5,-613 245.5,-613 251.5,-613 257.5,-619 257.5,-625 257.5,-625 257.5,-637 257.5,-637 257.5,-643 251.5,-649 245.5,-649"/>
<text text-anchor="middle" x="221.5" y="-634.4" font-family="Helvetica,sans-Serif" font-size="12.00">Conv 3x3</text>
<text text-anchor="middle" x="221.5" y="-621.4" font-family="Helvetica,sans-Serif" font-size="12.00">112 &#45;&gt; 128</text>
</g>
<!-- planes&#45;&gt;input_conv -->
<g id="edge2" class="edge">
<title>planes&#45;&gt;input_conv</title>
<path fill="none" stroke="#424242" stroke-width="1.2" d="M221.5,-704.42C221.5,-704.42 221.5,-657.04 221.5,-657.04"/>
<polygon fill="#424242" stroke="#424242" stroke-width="1.2" points="224.3,-657.04 221.5,-649.04 218.7,-657.04 224.3,-657.04"/>
</g>
<!-- input_relu -->
<g id="node4" class="node">
<title>input_relu</title>
<path fill="#e0f2f1" stroke="#00796b" stroke-width="1.2" d="M395.5,-649C395.5,-649 345.5,-649 345.5,-649 339.5,-649 333.5,-643 333.5,-637 333.5,-637 333.5,-625 333.5,-625 333.5,-619 339.5,-613 345.5,-613 345.5,-613 395.5,-613 395.5,-613 401.5,-613 407.5,-619 407.5,-625 407.5,-625 407.5,-637 407.5,-637 407.5,-643 401.5,-649 395.5,-649"/>
<text text-anchor="middle" x="370.5" y="-634.4" font-family="Helvetica,sans-Serif" font-size="12.00">ReLU</text>
<text text-anchor="middle" x="370.5" y="-621.4" font-family="Helvetica,sans-Serif" font-size="12.00">128 x 8 x 8</text>
</g>
<!-- input_conv&#45;&gt;input_relu -->
<g id="edge3" class="edge">
<title>input_conv&#45;&gt;input_relu</title>
<path fill="none" stroke="#424242" stroke-width="1.2" d="M257.57,-625C257.57,-625 325.47,-625 325.47,-625"/>
<polygon fill="#424242" stroke="#424242" stroke-width="1.2" points="325.47,-627.8 333.47,-625 325.47,-622.2 325.47,-627.8"/>
</g>
<!-- res_conv1 -->
<g id="node5" class="node">
<title>res_conv1</title>
<path fill="#e8f5e9" stroke="#2e7d32" stroke-width="1.2" d="M395.5,-563C395.5,-563 345.5,-563 345.5,-563 339.5,-563 333.5,-557 333.5,-551 333.5,-551 333.5,-539 333.5,-539 333.5,-533 339.5,-527 345.5,-527 345.5,-527 395.5,-527 395.5,-527 401.5,-527 407.5,-533 407.5,-539 407.5,-539 407.5,-551 407.5,-551 407.5,-557 401.5,-563 395.5,-563"/>
<text text-anchor="middle" x="370.5" y="-548.4" font-family="Helvetica,sans-Serif" font-size="12.00">Conv 3x3</text>
<text text-anchor="middle" x="370.5" y="-535.4" font-family="Helvetica,sans-Serif" font-size="12.00">128 &#45;&gt; 128</text>
</g>
<!-- input_relu&#45;&gt;res_conv1 -->
<g id="edge4" class="edge">
<title>input_relu&#45;&gt;res_conv1</title>
<path fill="none" stroke="#424242" stroke-width="1.2" d="M370.5,-612.76C370.5,-612.76 370.5,-571.21 370.5,-571.21"/>
<polygon fill="#424242" stroke="#424242" stroke-width="1.2" points="373.3,-571.21 370.5,-563.21 367.7,-571.21 373.3,-571.21"/>
</g>
<!-- res_add -->
<g id="node8" class="node">
<title>res_add</title>
<path fill="#e8f5e9" stroke="#2e7d32" stroke-width="1.2" d="M588.5,-471.5C588.5,-471.5 500.5,-471.5 500.5,-471.5 494.5,-471.5 488.5,-465.5 488.5,-459.5 488.5,-459.5 488.5,-447.5 488.5,-447.5 488.5,-441.5 494.5,-435.5 500.5,-435.5 500.5,-435.5 588.5,-435.5 588.5,-435.5 594.5,-435.5 600.5,-441.5 600.5,-447.5 600.5,-447.5 600.5,-459.5 600.5,-459.5 600.5,-465.5 594.5,-471.5 588.5,-471.5"/>
<text text-anchor="middle" x="544.5" y="-456.9" font-family="Helvetica,sans-Serif" font-size="12.00">SE gated residual</text>
<text text-anchor="middle" x="544.5" y="-443.9" font-family="Helvetica,sans-Serif" font-size="12.00">add + ReLU</text>
</g>
<!-- input_relu&#45;&gt;res_add -->
<g id="edge9" class="edge">
<title>input_relu&#45;&gt;res_add</title>
<path fill="none" stroke="#424242" stroke-width="1.2" stroke-dasharray="5,2" d="M407.81,-631C444.09,-631 493.75,-631 493.75,-631 493.75,-631 493.75,-479.83 493.75,-479.83"/>
<polygon fill="#424242" stroke="#424242" stroke-width="1.2" points="496.55,-479.83 493.75,-471.83 490.95,-479.83 496.55,-479.83"/>
<text text-anchor="middle" x="484.25" y="-601.38" font-family="Helvetica,sans-Serif" font-size="10.00">skip</text>
</g>
<!-- res_relu1 -->
<g id="node6" class="node">
<title>res_relu1</title>
<path fill="#e8f5e9" stroke="#2e7d32" stroke-width="1.2" d="M474.5,-563C474.5,-563 444.5,-563 444.5,-563 438.5,-563 432.5,-557 432.5,-551 432.5,-551 432.5,-539 432.5,-539 432.5,-533 438.5,-527 444.5,-527 444.5,-527 474.5,-527 474.5,-527 480.5,-527 486.5,-533 486.5,-539 486.5,-539 486.5,-551 486.5,-551 486.5,-557 480.5,-563 474.5,-563"/>
<text text-anchor="middle" x="459.5" y="-541.9" font-family="Helvetica,sans-Serif" font-size="12.00">ReLU</text>
</g>
<!-- res_conv1&#45;&gt;res_relu1 -->
<g id="edge5" class="edge">
<title>res_conv1&#45;&gt;res_relu1</title>
<path fill="none" stroke="#424242" stroke-width="1.2" d="M407.73,-545C407.73,-545 424.44,-545 424.44,-545"/>
<polygon fill="#424242" stroke="#424242" stroke-width="1.2" points="424.44,-547.8 432.44,-545 424.44,-542.2 424.44,-547.8"/>
</g>
<!-- res_conv2 -->
<g id="node7" class="node">
<title>res_conv2</title>
<path fill="#e8f5e9" stroke="#2e7d32" stroke-width="1.2" d="M573.5,-563C573.5,-563 523.5,-563 523.5,-563 517.5,-563 511.5,-557 511.5,-551 511.5,-551 511.5,-539 511.5,-539 511.5,-533 517.5,-527 523.5,-527 523.5,-527 573.5,-527 573.5,-527 579.5,-527 585.5,-533 585.5,-539 585.5,-539 585.5,-551 585.5,-551 585.5,-557 579.5,-563 573.5,-563"/>
<text text-anchor="middle" x="548.5" y="-548.4" font-family="Helvetica,sans-Serif" font-size="12.00">Conv 3x3</text>
<text text-anchor="middle" x="548.5" y="-535.4" font-family="Helvetica,sans-Serif" font-size="12.00">128 &#45;&gt; 128</text>
</g>
<!-- res_relu1&#45;&gt;res_conv2 -->
<g id="edge6" class="edge">
<title>res_relu1&#45;&gt;res_conv2</title>
<path fill="none" stroke="#424242" stroke-width="1.2" d="M486.69,-545C486.69,-545 503.32,-545 503.32,-545"/>
<polygon fill="#424242" stroke="#424242" stroke-width="1.2" points="503.32,-547.8 511.32,-545 503.32,-542.2 503.32,-547.8"/>
</g>
<!-- se -->
<g id="node9" class="node">
<title>se</title>
<polygon fill="#f1f8e9" stroke="#558b2f" stroke-width="1.2" points="463,-477 334,-477 334,-473 330,-473 330,-469 334,-469 334,-438 330,-438 330,-434 334,-434 334,-430 463,-430 463,-477"/>
<polyline fill="none" stroke="#558b2f" stroke-width="1.2" points="334,-473 338,-473 338,-469 334,-469 "/>
<polyline fill="none" stroke="#558b2f" stroke-width="1.2" points="334,-438 338,-438 338,-434 334,-434 "/>
<text text-anchor="middle" x="398.5" y="-463.4" font-family="Helvetica,sans-Serif" font-size="12.00">Squeeze&#45;excitation</text>
<text text-anchor="middle" x="398.5" y="-450.4" font-family="Helvetica,sans-Serif" font-size="12.00">avg pool &#45;&gt; 32 &#45;&gt; 256</text>
<text text-anchor="middle" x="398.5" y="-437.4" font-family="Helvetica,sans-Serif" font-size="12.00">sigmoid gate + bias</text>
</g>
<!-- res_conv2&#45;&gt;se -->
<g id="edge7" class="edge">
<title>res_conv2&#45;&gt;se</title>
<path fill="none" stroke="#424242" stroke-width="1.2" d="M548.5,-526.51C548.5,-514.86 548.5,-502 548.5,-502 548.5,-502 447.75,-502 447.75,-502 447.75,-502 447.75,-485.18 447.75,-485.18"/>
<polygon fill="#424242" stroke="#424242" stroke-width="1.2" points="450.55,-485.18 447.75,-477.18 444.95,-485.18 450.55,-485.18"/>
</g>
<!-- repeat -->
<g id="node10" class="node">
<title>repeat</title>
<polygon fill="#f1f8e9" stroke="#558b2f" stroke-width="1.2" points="743,-471.5 626,-471.5 626,-435.5 749,-435.5 749,-465.5 743,-471.5"/>
<polyline fill="none" stroke="#558b2f" stroke-width="1.2" points="743,-471.5 743,-465.5 "/>
<polyline fill="none" stroke="#558b2f" stroke-width="1.2" points="749,-465.5 743,-465.5 "/>
<text text-anchor="middle" x="687.5" y="-456.9" font-family="Helvetica,sans-Serif" font-size="12.00">Repeated 10 blocks</text>
<text text-anchor="middle" x="687.5" y="-443.9" font-family="Helvetica,sans-Serif" font-size="12.00">128 trunk channels</text>
</g>
<!-- res_add&#45;&gt;repeat -->
<g id="edge10" class="edge">
<title>res_add&#45;&gt;repeat</title>
<path fill="none" stroke="#424242" stroke-width="1.2" d="M600.61,-453C600.61,-453 617.88,-453 617.88,-453"/>
<polygon fill="#424242" stroke="#424242" stroke-width="1.2" points="617.88,-455.8 625.88,-453 617.88,-450.2 617.88,-455.8"/>
</g>
<!-- se&#45;&gt;res_add -->
<g id="edge8" class="edge">
<title>se&#45;&gt;res_add</title>
<path fill="none" stroke="#424242" stroke-width="1.2" d="M463.39,-453C463.39,-453 480.06,-453 480.06,-453"/>
<polygon fill="#424242" stroke="#424242" stroke-width="1.2" points="480.06,-455.8 488.06,-453 480.06,-450.2 480.06,-455.8"/>
</g>
<!-- policy_stem -->
<g id="node11" class="node">
<title>policy_stem</title>
<path fill="#fff3e0" stroke="#ef6c00" stroke-width="1.2" d="M781.5,-380C781.5,-380 693.5,-380 693.5,-380 687.5,-380 681.5,-374 681.5,-368 681.5,-368 681.5,-356 681.5,-356 681.5,-350 687.5,-344 693.5,-344 693.5,-344 781.5,-344 781.5,-344 787.5,-344 793.5,-350 793.5,-356 793.5,-356 793.5,-368 793.5,-368 793.5,-374 787.5,-380 781.5,-380"/>
<text text-anchor="middle" x="737.5" y="-365.4" font-family="Helvetica,sans-Serif" font-size="12.00">Conv 3x3 + ReLU</text>
<text text-anchor="middle" x="737.5" y="-352.4" font-family="Helvetica,sans-Serif" font-size="12.00">128 &#45;&gt; 128</text>
</g>
<!-- repeat&#45;&gt;policy_stem -->
<g id="edge11" class="edge">
<title>repeat&#45;&gt;policy_stem</title>
<path fill="none" stroke="#424242" stroke-width="1.2" d="M715.25,-435.42C715.25,-435.42 715.25,-388.04 715.25,-388.04"/>
<polygon fill="#424242" stroke="#424242" stroke-width="1.2" points="718.05,-388.04 715.25,-380.04 712.45,-388.04 718.05,-388.04"/>
</g>
<!-- value_conv -->
<g id="node15" class="node">
<title>value_conv</title>
<path fill="#e8eaf6" stroke="#303f9f" stroke-width="1.2" d="M514.5,-380C514.5,-380 426.5,-380 426.5,-380 420.5,-380 414.5,-374 414.5,-368 414.5,-368 414.5,-356 414.5,-356 414.5,-350 420.5,-344 426.5,-344 426.5,-344 514.5,-344 514.5,-344 520.5,-344 526.5,-350 526.5,-356 526.5,-356 526.5,-368 526.5,-368 526.5,-374 520.5,-380 514.5,-380"/>
<text text-anchor="middle" x="470.5" y="-365.4" font-family="Helvetica,sans-Serif" font-size="12.00">Conv 1x1 + ReLU</text>
<text text-anchor="middle" x="470.5" y="-352.4" font-family="Helvetica,sans-Serif" font-size="12.00">128 &#45;&gt; 32</text>
</g>
<!-- repeat&#45;&gt;value_conv -->
<g id="edge15" class="edge">
<title>repeat&#45;&gt;value_conv</title>
<path fill="none" stroke="#424242" stroke-width="1.2" d="M650.75,-435.07C650.75,-406.05 650.75,-353 650.75,-353 650.75,-353 534.54,-353 534.54,-353"/>
<polygon fill="#424242" stroke="#424242" stroke-width="1.2" points="534.54,-350.2 526.54,-353 534.54,-355.8 534.54,-350.2"/>
</g>
<!-- policy_out -->
<g id="node12" class="node">
<title>policy_out</title>
<path fill="#fff3e0" stroke="#ef6c00" stroke-width="1.2" d="M759.5,-294C759.5,-294 715.5,-294 715.5,-294 709.5,-294 703.5,-288 703.5,-282 703.5,-282 703.5,-270 703.5,-270 703.5,-264 709.5,-258 715.5,-258 715.5,-258 759.5,-258 759.5,-258 765.5,-258 771.5,-264 771.5,-270 771.5,-270 771.5,-282 771.5,-282 771.5,-288 765.5,-294 759.5,-294"/>
<text text-anchor="middle" x="737.5" y="-279.4" font-family="Helvetica,sans-Serif" font-size="12.00">Conv 3x3</text>
<text text-anchor="middle" x="737.5" y="-266.4" font-family="Helvetica,sans-Serif" font-size="12.00">128 &#45;&gt; 80</text>
</g>
<!-- policy_stem&#45;&gt;policy_out -->
<g id="edge12" class="edge">
<title>policy_stem&#45;&gt;policy_out</title>
<path fill="none" stroke="#424242" stroke-width="1.2" d="M737.5,-343.76C737.5,-343.76 737.5,-302.21 737.5,-302.21"/>
<polygon fill="#424242" stroke="#424242" stroke-width="1.2" points="740.3,-302.21 737.5,-294.21 734.7,-302.21 740.3,-302.21"/>
</g>
<!-- policy_map -->
<g id="node13" class="node">
<title>policy_map</title>
<path fill="#fff3e0" stroke="#ef6c00" stroke-width="1.2" d="M776.5,-208C776.5,-208 698.5,-208 698.5,-208 692.5,-208 686.5,-202 686.5,-196 686.5,-196 686.5,-184 686.5,-184 686.5,-178 692.5,-172 698.5,-172 698.5,-172 776.5,-172 776.5,-172 782.5,-172 788.5,-178 788.5,-184 788.5,-184 788.5,-196 788.5,-196 788.5,-202 782.5,-208 776.5,-208"/>
<text text-anchor="middle" x="737.5" y="-193.4" font-family="Helvetica,sans-Serif" font-size="12.00">Policy map</text>
<text text-anchor="middle" x="737.5" y="-180.4" font-family="Helvetica,sans-Serif" font-size="12.00">80 x 64 &#45;&gt; 4,672</text>
</g>
<!-- policy_out&#45;&gt;policy_map -->
<g id="edge13" class="edge">
<title>policy_out&#45;&gt;policy_map</title>
<path fill="none" stroke="#424242" stroke-width="1.2" d="M737.5,-257.76C737.5,-257.76 737.5,-216.21 737.5,-216.21"/>
<polygon fill="#424242" stroke="#424242" stroke-width="1.2" points="740.3,-216.21 737.5,-208.21 734.7,-216.21 740.3,-216.21"/>
</g>
<!-- policy_logits -->
<g id="node14" class="node">
<title>policy_logits</title>
<polygon fill="#fff8e1" stroke="#ef6c00" stroke-width="1.2" points="793.5,-36 675.5,-36 675.5,0 799.5,0 799.5,-30 793.5,-36"/>
<polyline fill="none" stroke="#ef6c00" stroke-width="1.2" points="793.5,-36 793.5,-30 "/>
<polyline fill="none" stroke="#ef6c00" stroke-width="1.2" points="799.5,-30 793.5,-30 "/>
<text text-anchor="middle" x="737.5" y="-21.4" font-family="Helvetica,sans-Serif" font-size="12.00">Move logits</text>
<text text-anchor="middle" x="737.5" y="-8.4" font-family="Helvetica,sans-Serif" font-size="12.00">LC0 move encoding</text>
</g>
<!-- policy_map&#45;&gt;policy_logits -->
<g id="edge14" class="edge">
<title>policy_map&#45;&gt;policy_logits</title>
<path fill="none" stroke="#424242" stroke-width="1.2" d="M737.5,-171.92C737.5,-171.92 737.5,-44.1 737.5,-44.1"/>
<polygon fill="#424242" stroke="#424242" stroke-width="1.2" points="740.3,-44.1 737.5,-36.1 734.7,-44.1 740.3,-44.1"/>
</g>
<!-- value_flat -->
<g id="node16" class="node">
<title>value_flat</title>
<path fill="#e8eaf6" stroke="#303f9f" stroke-width="1.2" d="M507.5,-294C507.5,-294 433.5,-294 433.5,-294 427.5,-294 421.5,-288 421.5,-282 421.5,-282 421.5,-270 421.5,-270 421.5,-264 427.5,-258 433.5,-258 433.5,-258 507.5,-258 507.5,-258 513.5,-258 519.5,-264 519.5,-270 519.5,-270 519.5,-282 519.5,-282 519.5,-288 513.5,-294 507.5,-294"/>
<text text-anchor="middle" x="470.5" y="-279.4" font-family="Helvetica,sans-Serif" font-size="12.00">Flatten</text>
<text text-anchor="middle" x="470.5" y="-266.4" font-family="Helvetica,sans-Serif" font-size="12.00">32 x 64 = 2,048</text>
</g>
<!-- value_conv&#45;&gt;value_flat -->
<g id="edge16" class="edge">
<title>value_conv&#45;&gt;value_flat</title>
<path fill="none" stroke="#424242" stroke-width="1.2" d="M470.5,-343.76C470.5,-343.76 470.5,-302.21 470.5,-302.21"/>
<polygon fill="#424242" stroke="#424242" stroke-width="1.2" points="473.3,-302.21 470.5,-294.21 467.7,-302.21 473.3,-302.21"/>
</g>
<!-- value_fc1 -->
<g id="node17" class="node">
<title>value_fc1</title>
<path fill="#e8eaf6" stroke="#303f9f" stroke-width="1.2" d="M506.5,-208C506.5,-208 434.5,-208 434.5,-208 428.5,-208 422.5,-202 422.5,-196 422.5,-196 422.5,-184 422.5,-184 422.5,-178 428.5,-172 434.5,-172 434.5,-172 506.5,-172 506.5,-172 512.5,-172 518.5,-178 518.5,-184 518.5,-184 518.5,-196 518.5,-196 518.5,-202 512.5,-208 506.5,-208"/>
<text text-anchor="middle" x="470.5" y="-193.4" font-family="Helvetica,sans-Serif" font-size="12.00">Dense + ReLU</text>
<text text-anchor="middle" x="470.5" y="-180.4" font-family="Helvetica,sans-Serif" font-size="12.00">2,048 &#45;&gt; 128</text>
</g>
<!-- value_flat&#45;&gt;value_fc1 -->
<g id="edge17" class="edge">
<title>value_flat&#45;&gt;value_fc1</title>
<path fill="none" stroke="#424242" stroke-width="1.2" d="M470.5,-257.76C470.5,-257.76 470.5,-216.21 470.5,-216.21"/>
<polygon fill="#424242" stroke="#424242" stroke-width="1.2" points="473.3,-216.21 470.5,-208.21 467.7,-216.21 473.3,-216.21"/>
</g>
<!-- value_fc2 -->
<g id="node18" class="node">
<title>value_fc2</title>
<path fill="#e8eaf6" stroke="#303f9f" stroke-width="1.2" d="M488.5,-122C488.5,-122 452.5,-122 452.5,-122 446.5,-122 440.5,-116 440.5,-110 440.5,-110 440.5,-98 440.5,-98 440.5,-92 446.5,-86 452.5,-86 452.5,-86 488.5,-86 488.5,-86 494.5,-86 500.5,-92 500.5,-98 500.5,-98 500.5,-110 500.5,-110 500.5,-116 494.5,-122 488.5,-122"/>
<text text-anchor="middle" x="470.5" y="-107.4" font-family="Helvetica,sans-Serif" font-size="12.00">Dense</text>
<text text-anchor="middle" x="470.5" y="-94.4" font-family="Helvetica,sans-Serif" font-size="12.00">128 &#45;&gt; 3</text>
</g>
<!-- value_fc1&#45;&gt;value_fc2 -->
<g id="edge18" class="edge">
<title>value_fc1&#45;&gt;value_fc2</title>
<path fill="none" stroke="#424242" stroke-width="1.2" d="M470.5,-171.76C470.5,-171.76 470.5,-130.21 470.5,-130.21"/>
<polygon fill="#424242" stroke="#424242" stroke-width="1.2" points="473.3,-130.21 470.5,-122.21 467.7,-130.21 473.3,-130.21"/>
</g>
<!-- wdl -->
<g id="node19" class="node">
<title>wdl</title>
<polygon fill="#e8eaf6" stroke="#303f9f" stroke-width="1.2" points="519,-36 416,-36 416,0 525,0 525,-30 519,-36"/>
<polyline fill="none" stroke="#303f9f" stroke-width="1.2" points="519,-36 519,-30 "/>
<polyline fill="none" stroke="#303f9f" stroke-width="1.2" points="525,-30 519,-30 "/>
<text text-anchor="middle" x="470.5" y="-21.4" font-family="Helvetica,sans-Serif" font-size="12.00">Softmax WDL</text>
<text text-anchor="middle" x="470.5" y="-8.4" font-family="Helvetica,sans-Serif" font-size="12.00">value = win &#45; loss</text>
</g>
<!-- value_fc2&#45;&gt;wdl -->
<g id="edge19" class="edge">
<title>value_fc2&#45;&gt;wdl</title>
<path fill="none" stroke="#424242" stroke-width="1.2" d="M470.5,-85.76C470.5,-85.76 470.5,-44.21 470.5,-44.21"/>
<polygon fill="#424242" stroke="#424242" stroke-width="1.2" points="473.3,-44.21 470.5,-36.21 467.7,-44.21 473.3,-44.21"/>
</g>
<!-- weights -->
<g id="node20" class="node">
<title>weights</title>
<polygon fill="#ede7f6" stroke="#5e35b1" stroke-width="1.2" points="634,-746 499,-746 499,-699 640,-699 640,-740 634,-746"/>
<polyline fill="none" stroke="#5e35b1" stroke-width="1.2" points="634,-746 634,-740 "/>
<polyline fill="none" stroke="#5e35b1" stroke-width="1.2" points="640,-740 634,-740 "/>
<text text-anchor="middle" x="569.5" y="-732.4" font-family="Helvetica,sans-Serif" font-size="12.00">models/leela_112planes-10blocksx128-policyhead80-valuehead32-policy4672-wdl3.bin</text>
<text text-anchor="middle" x="569.5" y="-719.4" font-family="Helvetica,sans-Serif" font-size="12.00">LC0J v1</text>
<text text-anchor="middle" x="569.5" y="-706.4" font-family="Helvetica,sans-Serif" font-size="12.00">3,713,203 params</text>
</g>
<!-- weights&#45;&gt;input_conv -->
<g id="edge20" class="edge">
<title>weights&#45;&gt;input_conv</title>
<path fill="none" stroke="#424242" stroke-width="1.2" stroke-dasharray="5,2" d="M498.66,-722C421.9,-722 310.25,-722 310.25,-722 310.25,-722 310.25,-637 310.25,-637 310.25,-637 265.6,-637 265.6,-637"/>
<polygon fill="#424242" stroke="#424242" stroke-width="1.2" points="265.6,-634.2 257.6,-637 265.6,-639.8 265.6,-634.2"/>
</g>
<!-- weights&#45;&gt;repeat -->
<g id="edge21" class="edge">
<title>weights&#45;&gt;repeat</title>
<path fill="none" stroke="#424242" stroke-width="1.2" stroke-dasharray="5,2" d="M633,-698.63C633,-698.63 633,-479.84 633,-479.84"/>
<polygon fill="#424242" stroke="#424242" stroke-width="1.2" points="635.8,-479.84 633,-471.84 630.2,-479.84 635.8,-479.84"/>
</g>
<!-- weights&#45;&gt;policy_stem -->
<g id="edge22" class="edge">
<title>weights&#45;&gt;policy_stem</title>
<path fill="none" stroke="#424242" stroke-width="1.2" stroke-dasharray="5,2" d="M617.5,-698.89C617.5,-620.08 617.5,-371 617.5,-371 617.5,-371 673.36,-371 673.36,-371"/>
<polygon fill="#424242" stroke="#424242" stroke-width="1.2" points="673.36,-373.8 681.36,-371 673.36,-368.2 673.36,-373.8"/>
</g>
<!-- weights&#45;&gt;value_conv -->
<g id="edge23" class="edge">
<title>weights&#45;&gt;value_conv</title>
<path fill="none" stroke="#424242" stroke-width="1.2" stroke-dasharray="5,2" d="M609,-698.85C609,-618.65 609,-362 609,-362 609,-362 534.83,-362 534.83,-362"/>
<polygon fill="#424242" stroke="#424242" stroke-width="1.2" points="534.83,-359.2 526.83,-362 534.83,-364.8 534.83,-359.2"/>
</g>
</g>
</svg>
